<?xml version="1.0" encoding="UTF-8" standalone="no"?>
<!-- Created with Inkscape (http://www.inkscape.org/) -->

<svg
   xmlns:dc="http://purl.org/dc/elements/1.1/"
   xmlns:cc="http://creativecommons.org/ns#"
   xmlns:rdf="http://www.w3.org/1999/02/22-rdf-syntax-ns#"
   xmlns:svg="http://www.w3.org/2000/svg"
   xmlns="http://www.w3.org/2000/svg"
   xmlns:sodipodi="http://sodipodi.sourceforge.net/DTD/sodipodi-0.dtd"
   xmlns:inkscape="http://www.inkscape.org/namespaces/inkscape"
   width="18"
   height="31"
   id="svg3033"
   version="1.1"
   inkscape:version="0.48.5 r10040"
   sodipodi:docname="tip.svg"
   inkscape:export-filename="P:\libraries\piconomic_fwlib\trunk\doc\images\tip.png"
   inkscape:export-xdpi="90"
   inkscape:export-ydpi="90">
  <defs
     id="defs3035" />
  <sodipodi:namedview
     id="base"
     pagecolor="#ffffff"
     bordercolor="#000000"
     borderopacity="1"
     inkscape:pageopacity="0.0"
     inkscape:pageshadow="2"
     inkscape:zoom="22.627417"
     inkscape:cx="12.183607"
     inkscape:cy="2.9453688"
     inkscape:current-layer="layer1"
     showgrid="true"
     inkscape:grid-bbox="true"
     inkscape:document-units="px"
     borderlayer="true"
     inkscape:window-width="1920"
     inkscape:window-height="1018"
     inkscape:window-x="-8"
     inkscape:window-y="-8"
     inkscape:window-maximized="1">
    <inkscape:grid
       type="xygrid"
       id="grid3041"
       empspacing="2"
       visible="true"
       enabled="true"
       snapvisiblegridlinesonly="true"
       spacingx="0.5px"
       spacingy="0.5px" />
    <inkscape:grid
       type="xygrid"
       id="grid3043"
       empspacing="8"
       visible="true"
       enabled="true"
       snapvisiblegridlinesonly="true"
       spacingx="4px"
       spacingy="4px"
       color="#ff0000"
       opacity="0.25098039"
       empcolor="#000000"
       empopacity="0.50196078" />
  </sodipodi:namedview>
  <metadata
     id="metadata3038">
    <rdf:RDF>
      <cc:Work
         rdf:about="">
        <dc:format>image/svg+xml</dc:format>
        <dc:type
           rdf:resource="http://purl.org/dc/dcmitype/StillImage" />
        <dc:title />
      </cc:Work>
    </rdf:RDF>
  </metadata>
  <g
     id="layer1"
     inkscape:label="Layer 1"
     inkscape:groupmode="layer"
     transform="translate(0,-1)">
    <path
       style="fill:#202020;fill-opacity:1;stroke:#101010;stroke-width:1px;stroke-linecap:round;stroke-linejoin:miter;stroke-opacity:1"
       d="m 12,29.5 -2,2 -1,0 -1,0 -2,-2 0,-5.5 6,0 z"
       id="path3879"
       inkscape:connector-curvature="0"
       sodipodi:nodetypes="cccccccc" />
    <path
       id="path3835-1"
       style="fill:#ffff00;fill-opacity:1;stroke:#c0c000;stroke-width:2;stroke-linecap:butt;stroke-linejoin:miter;stroke-miterlimit:4;stroke-opacity:1;stroke-dasharray:none"
       d="M 15.5879,14.539971 C 16.478455,13.25015 17,11.685982 17,10 17,5.581722 13.418278,2 9,2 4.581722,2 1,5.581722 1,10 1,11.694854 1.5270482,13.266609 2.4261894,14.56031 3.36794,15.942902 4.198139,17.348708 4.5,19 c 0,0.5 0,1.5 0,2 0,0.5 0,1.5 1,1.5 l 7,0 c 1,0 1,-1 1,-1.5 0,-0.5 0,-1.5 0,-2 0.351777,-1.914951 1.154366,-2.935586 2.0879,-4.460029 z"
       inkscape:connector-curvature="0"
       sodipodi:nodetypes="csssccsccscc" />
    <path
       style="fill:none;stroke:#404040;stroke-width:2;stroke-linecap:round;stroke-linejoin:miter;stroke-miterlimit:4;stroke-opacity:1;stroke-dasharray:none"
       d="m 13,24.5 -8,1"
       id="path3857"
       inkscape:connector-curvature="0"
       sodipodi:nodetypes="cc" />
    <path
       style="fill:none;stroke:#404040;stroke-width:2;stroke-linecap:round;stroke-linejoin:miter;stroke-miterlimit:4;stroke-opacity:1;stroke-dasharray:none"
       d="m 13,27.5 -8,1"
       id="path3857-7"
       inkscape:connector-curvature="0"
       sodipodi:nodetypes="cc" />
    <path
       style="fill:none;stroke:#000000;stroke-width:1px;stroke-linecap:butt;stroke-linejoin:miter;stroke-opacity:1"
       d="m 7.5,21.5 0,-2.5 c 0,0 0,-1 0.5,-1.5 C 8.5,17 8.5,17 9,17"
       id="path3881"
       inkscape:connector-curvature="0" />
    <path
       style="fill:none;stroke:#000000;stroke-width:1px;stroke-linecap:butt;stroke-linejoin:miter;stroke-opacity:1"
       d="m 10.5,21.5 0,-2.5 c 0,0 0,-1 -0.5,-1.5 C 9.5,17 9.5,17 9,17"
       id="path3881-4"
       inkscape:connector-curvature="0" />
    <path
       id="path3901-0"
       style="fill:none;stroke:#000000;stroke-width:1px;stroke-linecap:butt;stroke-linejoin:miter;stroke-opacity:1"
       d="M 10,17.5 C 10.5,16.5 11.5,15 9.5,15 l -1,0 c -2,0 -1,1.5 -0.5,2.5"
       inkscape:connector-curvature="0"
       sodipodi:nodetypes="cccc" />
    <path
       style="fill:none;stroke:#000000;stroke-width:1px;stroke-linecap:round;stroke-linejoin:miter;stroke-opacity:1"
       d="M 7.5,15 C 7.5,12.5 5,8 5,8"
       id="path3933"
       inkscape:connector-curvature="0" />
    <path
       style="fill:none;stroke:#000000;stroke-width:1px;stroke-linecap:round;stroke-linejoin:miter;stroke-opacity:1"
       d="M 10.5,15 C 10.5,12.5 13,8 13,8"
       id="path3933-9"
       inkscape:connector-curvature="0" />
    <path
       style="fill:none;stroke:#000000;stroke-width:1px;stroke-linecap:round;stroke-linejoin:miter;stroke-opacity:1"
       d="m 5,8 c 1,2 2.5,1 2.5,0"
       id="path3955"
       inkscape:connector-curvature="0" />
    <path
       style="fill:none;stroke:#000000;stroke-width:1px;stroke-linecap:round;stroke-linejoin:miter;stroke-opacity:1"
       d="m 13,8 c -1,2 -2.5,1 -2.5,0"
       id="path3955-4"
       inkscape:connector-curvature="0" />
    <path
       style="fill:none;stroke:#000000;stroke-width:1px;stroke-linecap:round;stroke-linejoin:miter;stroke-opacity:1"
       d="m 7.5,8 c 0,2 3,2 3,0"
       id="path3975"
       inkscape:connector-curvature="0" />
  </g>
</svg>
